<svg width="512" height="512" xmlns="http://www.w3.org/2000/svg" xmlns:xlink="http://www.w3.org/1999/xlink"
     xml:space="preserve" overflow="hidden"><g transform="translate(-264 -464)"><path d="M662.933 580.267C650.133 580.267 639.467 569.6 639.467 556.8 639.467 544 650.133 533.333 662.933 533.333 675.733 533.333 686.4 544 686.4 556.8L686.4 556.8C686.4 569.6 675.733 580.267 662.933 580.267 662.933 580.267 662.933 580.267 662.933 580.267ZM662.933 501.333C644.8 501.333 627.733 510.4 617.6 525.333 607.467 540.267 605.333 559.467 611.733 576.533L636.8 631.467 658.133 676.8C659.733 679.467 662.933 680.533 665.067 678.933 666.133 678.4 666.667 677.867 667.2 676.8L688.533 631.467 713.6 576.533C720 559.467 717.867 540.267 707.733 525.333 698.133 510.4 681.067 501.333 662.933 501.333Z" fill="#404040"/><path
        d="M390.933 793.6C374.933 793.6 361.6 780.267 361.6 764.267 361.6 748.267 374.933 734.933 390.933 734.933 406.933 734.933 420.267 748.267 420.267 764.267 420.267 764.267 420.267 764.267 420.267 764.267 420.267 780.267 406.933 793.6 390.933 793.6 390.933 793.6 390.933 793.6 390.933 793.6L390.933 793.6ZM390.933 696C368.533 696 347.2 707.2 334.4 725.867 321.6 744.533 318.933 768.533 327.467 789.333L358.4 857.6 385.067 913.6C386.667 916.8 390.933 917.867 394.133 916.267 395.2 915.733 396.267 914.667 396.8 913.6L423.467 857.6 454.4 789.333C462.4 768.533 459.733 744.533 447.467 725.867 434.667 707.2 413.333 696 390.933 696L390.933 696Z"
        fill="#404040"/><path
        d="M465.6 917.333 451.733 917.333C445.333 917.333 439.467 917.333 433.6 917.333L433.6 885.333C438.933 885.333 445.333 885.333 451.733 885.333L465.6 885.333 465.6 917.333Z"
        fill="#404040"/><path
        d="M487.467 917.333 487.467 885.333C499.2 885.333 509.333 885.333 518.933 884.8L520 916.8C509.867 917.333 499.2 917.333 487.467 917.333Z"
        fill="#404040"/><path
        d="M541.333 915.733 539.733 883.733C550.933 883.2 561.6 882.667 570.667 881.6L573.867 913.6C564.267 914.667 553.067 915.2 541.333 915.733L541.333 915.733Z"
        fill="#404040"/><path
        d="M596.267 910.933 591.467 879.467C601.6 877.867 611.2 876.267 620.8 873.6L629.333 904.533C618.133 907.2 607.467 909.333 596.267 910.933Z"
        fill="#404040"/><path
        d="M651.733 896.533 638.933 867.2C645.867 865.067 651.733 860.267 656 854.4L684.267 869.867C676.267 882.133 665.067 891.2 651.733 896.533L651.733 896.533Z"
        fill="#404040"/><path
        d="M656.533 843.733C655.467 836.8 652.267 829.867 647.467 825.067L669.867 802.667C680 812.8 686.4 825.6 688 840L656.533 843.733Z"
        fill="#404040"/><path
        d="M634.133 815.467C625.6 811.2 616.533 807.467 607.467 804.8L616.533 774.4C627.733 777.6 638.933 781.867 649.067 787.2L634.133 815.467Z"
        fill="#404040"/><path
        d="M587.2 799.467 578.667 797.333C571.2 795.2 563.2 793.6 555.733 791.467L564.267 760.533C571.2 762.667 578.667 764.267 586.133 766.4L594.667 768.533 587.2 799.467Z"
        fill="#404040"/><path
        d="M533.867 784C521.067 779.2 509.333 771.2 500.8 760.533L526.933 742.4C531.733 748.267 538.667 752.533 545.6 754.667L533.867 784Z"
        fill="#404040"/><path
        d="M524.8 731.733 492.8 729.6C493.867 714.133 502.4 700.267 514.667 691.2L534.4 716.267C524.8 724.267 524.8 730.133 524.8 731.733L524.8 731.733Z"
        fill="#404040"/><path
        d="M549.333 708.267 536.533 678.933C547.2 674.133 558.4 670.4 569.6 667.733L577.067 698.667C567.467 701.333 558.4 704.533 549.333 708.267L549.333 708.267Z"
        fill="#404040"/><path
        d="M596.8 694.933 591.467 663.467C605.333 661.333 617.067 659.733 624.533 659.2L627.2 691.2C621.867 691.733 610.133 692.8 596.8 694.933L596.8 694.933Z"
        fill="#404040"/></g></svg>