<svg width="512" height="512" xmlns="http://www.w3.org/2000/svg" xmlns:xlink="http://www.w3.org/1999/xlink" xml:space="preserve" overflow="hidden"><g transform="translate(-504 23)"><path d="M921.067 240.467C947.733 240.467 969.067 219.133 969.067 192.467 969.067 165.8 947.733 144.467 921.067 144.467 894.4 144.467 873.067 165.8 873.067 192.467 873.067 195.133 873.067 197.267 873.6 199.933L818.133 222.867C808 205.267 790.933 193 770.667 189.8L770.667 130.6C796.267 124.733 812.8 99.1333 806.933 73 801.067 47.4 775.467 30.8667 749.333 36.7333 723.2 42.6 707.2 68.2 713.067 94.3333 717.333 112.467 731.2 126.333 749.333 130.6L749.333 190.333C729.6 193.533 712.533 205.267 702.4 222.867L648.533 200.467C652.8 174.333 634.667 149.8 608.533 145.533 581.867 141.267 557.333 158.867 553.6 185 549.333 211.133 567.467 235.667 593.6 239.933 611.733 242.6 629.867 235.133 640.533 220.2L694.933 242.6C691.2 261.267 695.467 280.467 706.667 295.933L662.4 340.733C640 326.867 610.133 333.8 596.267 356.2 582.4 378.6 589.333 408.467 611.733 422.333 634.133 436.2 664 429.267 677.867 406.867 687.467 390.867 687.467 371.133 677.333 355.667L721.6 311.4C744.533 327.4 774.933 327.4 797.333 311.4L841.6 355.667C827.2 378.067 833.6 407.4 856 421.8 878.4 436.2 907.733 429.8 922.133 407.4 936.533 385 930.133 355.667 907.733 341.267 892.267 331.133 872 331.133 856 340.733L813.333 295.933C821.867 284.2 826.667 270.333 826.667 255.933 826.667 251.667 826.133 247.4 825.6 243.133L881.6 220.2C890.667 232.467 905.067 240.467 921.067 240.467ZM909.867 186.6C909.867 186.6 922.133 180.733 922.133 170.6 922.133 168.467 923.733 166.333 925.867 166.333 928 166.333 930.133 167.933 930.133 170.067 930.133 170.067 930.133 170.067 930.133 170.6 930.133 174.867 929.6 179.133 928 183.4 928 184.467 929.067 185.533 930.133 185.533L942.933 185.533C945.067 185.533 947.2 187.133 947.2 189.8 947.2 191.4 946.133 193 944.533 193.533 946.133 195.133 946.133 197.8 944.533 199.4 944 199.933 943.467 200.467 942.4 200.467 942.933 201 943.467 202.067 943.467 203.133 943.467 205.267 941.867 207.4 939.2 207.4L938.667 207.4C939.2 207.933 939.733 209 939.733 210.067 939.733 212.2 938.133 214.333 935.467 214.333L923.2 214.333C914.133 214.333 913.6 209 908.8 209L908.8 186.6ZM898.133 183.4 902.933 183.4C904.533 183.4 905.6 184.467 905.6 186.067L905.6 209C905.6 210.6 904.533 211.667 902.933 211.667L898.133 211.667 898.133 183.4ZM621.867 196.733 605.867 196.733 605.867 212.733 595.2 212.733 595.2 196.733 579.2 196.733 579.2 186.067 595.2 186.067 595.2 170.067 605.867 170.067 605.867 186.067 621.867 186.067 621.867 196.733ZM621.333 396.2C621.333 397.8 620.267 398.867 618.667 398.867L613.867 398.867 613.867 370.6 618.667 370.6C620.267 370.6 621.333 371.667 621.333 373.267L621.333 396.2ZM661.333 383.4C661.333 385.533 659.733 387.133 658.133 387.133 658.667 387.667 659.2 388.733 659.2 389.8 659.2 391.933 657.067 394.067 654.933 394.067 655.467 394.6 656 395.667 656 396.733 656 398.867 654.4 401 651.733 401L639.467 401C630.4 401 629.867 395.667 625.067 395.667L625.067 373.8C625.067 373.8 637.333 367.933 637.333 357.8 637.333 355.667 638.933 353.533 641.067 353.533 643.2 353.533 645.333 355.133 645.333 357.267 645.333 357.267 645.333 357.267 645.333 357.8 645.333 362.067 644.8 366.333 643.2 370.6 643.2 371.667 644.267 372.733 645.333 372.733L658.667 372.733C660.8 372.733 662.933 374.333 662.933 377 662.933 378.6 661.867 380.2 660.267 380.733 660.8 381.267 661.333 382.333 661.333 383.4ZM736.533 75.6667C736.533 66.0667 751.467 55.4 760.533 73 769.6 55.4 784.533 66.0667 784.533 75.6667 784.533 90.6 760.533 108.733 760.533 108.733 760.533 108.733 736.533 90.0667 736.533 75.6667ZM741.333 233.533C741.333 223.4 749.867 214.867 760 214.867 770.133 214.867 778.667 223.4 778.667 233.533 778.667 243.667 770.133 252.2 760 252.2 749.867 252.2 741.333 244.2 741.333 233.533L741.333 233.533ZM797.333 290.067 722.667 290.067 722.667 275.667C722.667 273 724.267 269.8 726.4 268.2 731.733 264.467 738.133 261.267 744.533 259.133 749.333 257.533 754.667 257 760 257 765.333 257 770.667 257.533 775.467 259.133 781.867 260.733 788.267 263.933 793.6 268.2 795.733 269.8 797.333 273 797.333 275.667L797.333 290.067ZM883.2 370.067C892.267 352.467 907.2 363.133 907.2 372.733 907.2 387.667 883.2 405.8 883.2 405.8 883.2 405.8 859.2 387.667 859.2 372.733 859.2 363.133 874.133 352.467 883.2 370.067Z" fill="#404040"/></g></svg>