<svg width="512" height="512" xmlns="http://www.w3.org/2000/svg" xmlns:xlink="http://www.w3.org/1999/xlink" xml:space="preserve" overflow="hidden"><g transform="translate(-384 -104)"><path d="M650.667 473.067 650.667 501.333 629.333 501.333 629.333 473.067C617.067 468.8 608 457.067 608 442.667 608 425.067 622.4 410.667 640 410.667 657.6 410.667 672 425.067 672 442.667 672 456.533 662.933 468.267 650.667 473.067ZM560 277.333C560 233.067 595.733 197.333 640 197.333 684.267 197.333 720 233.067 720 277.333L720 336.533 640 330.667 560 336.533 560 277.333ZM752 338.667 752 277.333C752 215.467 701.867 165.333 640 165.333 578.133 165.333 528 215.467 528 277.333L528 338.667 490.667 341.333 490.667 544 640 554.667 789.333 544 789.333 341.333 752 338.667Z" fill="#404040"/></g></svg>