<svg width="512" height="512" xmlns="http://www.w3.org/2000/svg" xmlns:xlink="http://www.w3.org/1999/xlink" xml:space="preserve" overflow="hidden"><g transform="translate(-681 -104)"><path d="M1123.13 312.533C1121.53 312.533 1119.93 312.533 1118.33 312.533L1104.47 275.2C1136.47 257.067 1147.67 216.533 1130.07 184.533 1111.93 152.533 1071.4 141.333 1039.4 158.933 1023.93 167.467 1012.2 182.4 1007.93 199.467L958.333 194.133C954.6 170.667 932.733 154.133 909.267 157.867 887.933 161.067 872.467 179.2 872.467 200.533 872.467 208 874.6 215.467 878.333 222.4L818.6 281.067C807.4 272.533 793.533 267.733 779.133 267.733 742.333 267.733 712.467 297.6 712.467 334.4 712.467 371.2 742.333 401.067 779.133 401.067L792.467 481.067C770.6 490.667 760.467 516.267 770.067 538.133 779.667 560 805.267 570.133 827.133 560.533 847.4 552 857.533 529.6 851.667 508.267L898.6 483.733C929 517.333 981.267 520 1015.4 489.6 1032.47 474.133 1042.6 451.733 1042.6 428.8 1042.6 422.933 1042.07 416.533 1040.47 410.667L1092.2 384C1108.2 402.133 1135.4 403.733 1153.53 387.733 1171.67 371.733 1173.27 344.533 1157.27 326.4 1147.13 317.867 1135.4 312.533 1123.13 312.533L1123.13 312.533ZM1123.13 328.533C1130.07 328.533 1135.4 333.867 1135.4 340.8 1135.4 347.733 1130.07 353.067 1123.13 353.067 1116.2 353.067 1110.87 347.733 1110.87 340.8 1110.87 340.8 1110.87 340.8 1110.87 340.8 1110.87 333.867 1116.2 328.533 1123.13 328.533L1123.13 328.533ZM1071.93 176.533C1082.07 176.533 1090.6 185.067 1090.6 195.2 1090.6 205.333 1082.07 213.867 1071.93 213.867 1061.8 213.867 1053.27 205.333 1053.27 195.2 1053.27 195.2 1053.27 195.2 1053.27 195.2 1053.27 185.067 1061.27 176.533 1071.93 176.533ZM1034.07 237.333C1034.07 234.667 1035.67 231.467 1037.8 229.867 1043.13 226.133 1049.53 222.933 1055.93 221.333 1060.73 219.733 1066.07 219.2 1071.4 219.2 1076.73 219.2 1082.07 220.267 1086.87 221.333 1093.27 222.933 1099.67 226.133 1105 230.4 1107.13 232 1108.73 235.2 1108.73 237.867L1108.73 252.267 1034.07 252.267 1034.07 237.333ZM915.133 173.333C922.067 173.333 927.4 178.667 927.4 185.6 927.4 192.533 922.067 197.867 915.133 197.867 908.2 197.867 902.867 192.533 902.867 185.6 902.867 185.6 902.867 185.6 902.867 185.6 902.867 179.2 908.2 173.333 915.133 173.333L915.133 173.333ZM890.067 213.333C890.067 211.2 891.133 209.6 892.733 208.533 896.467 205.867 900.733 204.267 905 203.2 908.2 202.133 911.933 201.6 915.133 201.6 918.333 201.6 922.067 202.133 925.267 203.2 929.533 204.267 933.267 206.4 937 209.067 938.6 210.133 939.667 212.267 939.667 213.867L939.667 223.467 890.6 223.467 890.6 213.333ZM778.067 293.867C788.2 293.867 796.733 302.4 796.733 312.533 796.733 322.667 788.2 331.2 778.067 331.2 767.933 331.2 759.4 322.667 759.4 312.533 759.4 312.533 759.4 312.533 759.4 312.533 759.933 302.4 767.933 293.867 778.067 293.867L778.067 293.867ZM740.733 369.067 740.733 354.667C740.733 352 742.333 348.8 744.467 347.2 749.8 343.467 756.2 340.267 762.6 338.667 767.4 337.067 772.733 336.533 778.067 336.533 783.4 336.533 788.733 337.6 793.533 338.667 799.933 340.267 806.333 343.467 811.667 347.733 813.8 349.333 815.4 352.533 815.4 355.2L815.4 369.6 740.733 369.067ZM833 542.933 783.4 542.933 783.4 533.333C783.4 531.2 784.467 529.6 786.067 528.533 789.8 525.867 794.067 523.733 798.333 522.667 801.533 521.6 805.267 521.067 808.467 521.067 811.667 521.067 815.4 521.6 818.6 522.667 822.867 523.733 826.6 525.867 830.333 528.533 831.933 529.6 833 531.733 833 533.333L833 542.933ZM795.667 505.6C795.667 498.667 801 493.333 807.933 493.333 814.867 493.333 820.2 498.667 820.2 505.6 820.2 512.533 814.867 517.867 807.933 517.867 801.533 518.4 796.2 512.533 795.667 505.6L795.667 505.6ZM838.333 490.667C831.4 483.733 821.8 479.467 812.2 478.4L798.867 398.4C811.667 394.133 822.867 386.133 830.867 375.467L880.467 401.6C872.467 422.933 874.067 446.933 884.733 467.2L838.333 490.667ZM890.6 381.867 841.533 356.267C843.667 349.333 844.733 342.4 844.733 334.933 844.733 321.067 840.467 307.733 832.467 296.533L892.2 238.4C912.467 250.667 939.133 244.8 951.4 224.533 953 221.867 954.067 219.2 955.133 216.533L1004.73 221.867C1005.8 241.067 1015.4 259.2 1030.87 270.933L987.133 352.533C952.467 338.667 912.467 350.933 890.6 381.867L890.6 381.867ZM981.267 401.6C981.267 414.4 970.6 424.533 957.8 424.533 945 424.533 934.867 414.4 934.867 401.6 934.867 388.8 945 378.667 957.8 378.667 957.8 378.667 957.8 378.667 958.333 378.667 971.133 378.667 981.267 388.8 981.267 401.6L981.267 401.6ZM1004.2 471.467 911.933 471.467 911.933 453.867C911.933 450.133 913.533 446.933 916.733 444.8 923.667 440 931.133 436.267 939.133 433.6 945.533 432 951.933 430.933 958.333 430.933 964.733 430.933 971.133 432 977.533 433.6 985.533 435.733 993.533 439.467 999.933 444.8 1002.6 446.933 1004.73 450.667 1004.73 453.867L1004.2 471.467ZM1079.93 356.267C1079.93 359.467 1080.47 362.667 1081.53 365.867L1032.47 391.467C1026.6 379.733 1017.53 370.133 1006.87 362.667L1050.6 281.067C1057.53 283.733 1065 284.8 1072.47 284.8 1076.73 284.8 1081 284.267 1085.27 283.733L1099.13 321.067C1086.33 328.533 1079.4 341.867 1079.93 356.267ZM1147.67 377.6 1098.07 377.6 1098.07 368C1098.07 365.867 1099.13 364.267 1100.73 363.2 1104.47 360.533 1108.73 358.4 1113 357.333 1116.2 356.267 1119.93 355.733 1123.13 355.733 1126.33 355.733 1130.07 356.267 1133.27 357.333 1137.53 358.4 1141.27 360.533 1145 363.2 1146.6 364.267 1147.67 366.4 1147.67 368L1147.67 377.6Z" fill="#404040"/></g></svg>