<svg width="512" height="512" xmlns="http://www.w3.org/2000/svg" xmlns:xlink="http://www.w3.org/1999/xlink" xml:space="preserve" overflow="hidden"><g transform="translate(-384 -104)"><path d="M437.333 285.333 437.333 173.333 473.067 209.067C508.8 177.067 556.267 157.333 608 157.333 720 157.333 810.667 248 810.667 360 810.667 472 720 562.667 608 562.667 552 562.667 501.333 539.733 464.533 503.467L509.867 458.133C534.933 483.2 569.6 498.667 608 498.667 684.267 498.667 746.667 436.267 746.667 360 746.667 283.733 684.267 221.333 608 221.333 573.867 221.333 542.4 233.6 518.4 254.4L549.333 285.333 437.333 285.333Z" fill="#404040"/></g></svg>