<svg width="512" height="512" xmlns="http://www.w3.org/2000/svg" xmlns:xlink="http://www.w3.org/1999/xlink" xml:space="preserve" overflow="hidden"><g transform="translate(465 -57)"><path d="M-169 243.667-254.333 243.667-254.333 371.667-321 371.667-211.667 499.667-102.333 371.667-169 371.667Z" fill="#404040"/><path d="M-35.1333 259.133C-39.4 233-53.8 209.533-75.1333 194.067-97 178.6-124.733 172.733-151.4 178.067-177.533 138.067-226.067 118.333-272.467 129.533-317.8 141.267-351.933 179.133-358.867 225.533-388.733 226.6-417 241-435.133 265-456.467 294.867-460.2 333.8-445.267 367.4-429.8 400.467-397.8 422.333-361.533 424.467L-322.6 424.467-337 406.867-350.333 391.4-359.933 391.4C-383.933 389.8-405.267 375.4-415.933 353.533-426.067 331.133-423.4 305.533-409 285.267-394.6 265.533-370.6 255.933-346.067 259.667L-327.4 262.867-327.4 242.067C-327.4 204.2-301.8 171.133-265 162.067-228.2 153-190.333 171.133-173.267 204.733L-166.867 217.533-153.533 212.733C-133.267 205.8-111.4 209-93.8 221.267-76.7333 234.067-66.6 253.8-66.0667 275.133L-66.0667 291.667-44.2 291.667C-17 292.733 4.33334 315.133 3.80002 341.8 3.80002 369-18.0667 390.867-44.7333 391.4L-72.4667 391.4-86.3333 406.867-101.267 425-44.7333 425C-1.53333 423.933 33.6667 389.8 36.3333 346.6 39 303.4 7.53333 265.533-35.1333 259.133Z" fill="#404040"/></g></svg>