<svg width="512" height="512" xmlns="http://www.w3.org/2000/svg" xmlns:xlink="http://www.w3.org/1999/xlink" xml:space="preserve" overflow="hidden"><g transform="matrix(1 0 0 1 0 -57)"><path d="M86.5333 387.267C70.1643 381.272 56.8176 369.067 49.3867 353.299 39.3778 331.006 41.9565 305.076 56.16 285.192 70.6256 265.572 94.7893 255.607 118.88 259.325L137.813 262.472 137.813 241.832C137.98 204.053 163.658 171.161 200.267 161.832 236.989 152.98 274.957 170.68 291.787 204.499L298.24 217.352 311.627 212.605C331.657 205.54 353.871 208.642 371.2 220.925 388.43 233.538 398.629 253.599 398.667 274.952L398.667 291.592 420.427 291.592C448.066 292.63 469.63 315.877 468.593 343.516 467.602 369.904 446.291 390.989 419.893 391.699L391.893 391.699 322.773 391.581 322.773 424.819 363.573 424.925 419.893 424.925C465.948 423.835 502.399 385.617 501.31 339.562 500.348 298.929 470.241 264.905 430.027 259.005 425.779 232.923 411.452 209.555 390.133 193.939 368.066 178.318 340.517 172.526 314.027 177.939 287.965 137.702 239.363 118.274 192.747 129.459 147.208 141.067 113.135 178.949 106.4 225.459 76.2325 226.374 48.1313 241.004 30.08 265.192 8.64235 294.982 4.73826 333.949 19.84 367.4 35.2239 400.374 67.4613 422.249 103.787 424.36L142.933 424.36 184.107 424.472 184.107 391.341 114.773 391.219 105.173 391.219C99.1061 390.832 93.1211 389.612 87.3867 387.592Z" fill="#404040"/><path d="M296.107 488.925 296.107 360.925 362.773 360.925 253.44 232.925 144.107 360.925 210.773 360.925 210.773 488.925 296.107 488.925Z" fill="#404040"/></g></svg>